<svg xmlns="http://www.w3.org/2000/svg" xmlns:xlink="http://www.w3.org/1999/xlink" width="500" zoomAndPan="magnify" viewBox="0 0 375 374.999991" height="500" preserveAspectRatio="xMidYMid meet" version="1.0"><defs><g/><clipPath id="53cb23f7b1"><path d="M 43 189 L 102 189 L 102 209 L 43 209 Z M 43 189 " clip-rule="nonzero"/></clipPath><clipPath id="a8e30204cb"><path d="M 42.820312 190.921875 L 101.304688 189.582031 L 101.714844 207.578125 L 43.230469 208.917969 Z M 42.820312 190.921875 " clip-rule="nonzero"/></clipPath><clipPath id="a42a9cdb63"><path d="M 42.820312 190.921875 L 101.304688 189.582031 L 101.714844 207.578125 L 43.230469 208.917969 Z M 42.820312 190.921875 " clip-rule="nonzero"/></clipPath><clipPath id="3aaf927ed9"><path d="M 272 192 L 332 192 L 332 207 L 272 207 Z M 272 192 " clip-rule="nonzero"/></clipPath><clipPath id="2d033e2afe"><path d="M 330.472656 211.128906 L 272.230469 205.621094 L 273.925781 187.699219 L 332.167969 193.207031 Z M 330.472656 211.128906 " clip-rule="nonzero"/></clipPath><clipPath id="c1a03d37cf"><path d="M 330.472656 211.128906 L 272.230469 205.621094 L 273.925781 187.699219 L 332.167969 193.207031 Z M 330.472656 211.128906 " clip-rule="nonzero"/></clipPath><clipPath id="432c90f57e"><path d="M 156 144.390625 L 218.886719 144.390625 L 218.886719 176.640625 L 156 176.640625 Z M 156 144.390625 " clip-rule="nonzero"/></clipPath></defs><g fill="#545454" fill-opacity="1"><g transform="translate(118.541294, 207.716516)"><g><path d="M 20.25 -6.265625 C 20.394531 -6.265625 20.519531 -6.207031 20.625 -6.09375 C 20.738281 -5.988281 20.796875 -5.863281 20.796875 -5.71875 C 20.796875 -5.5 20.703125 -5.335938 20.515625 -5.234375 C 19.597656 -4.671875 18.617188 -4.191406 17.578125 -3.796875 C 16.535156 -3.398438 15.46875 -3.066406 14.375 -2.796875 C 13.289062 -2.535156 12.226562 -2.316406 11.1875 -2.140625 C 10.144531 -1.972656 9.160156 -1.828125 8.234375 -1.703125 C 7.492188 -0.984375 6.71875 -0.414062 5.90625 0 C 5.09375 0.425781 4.363281 0.640625 3.71875 0.640625 C 3.25 0.640625 2.863281 0.503906 2.5625 0.234375 C 2.257812 -0.0234375 2.109375 -0.359375 2.109375 -0.765625 C 2.109375 -1.171875 2.304688 -1.484375 2.703125 -1.703125 C 3.097656 -1.929688 3.6875 -2.117188 4.46875 -2.265625 C 5.257812 -2.410156 6.222656 -2.5625 7.359375 -2.71875 L 7.734375 -2.765625 C 8.296875 -3.335938 8.734375 -3.914062 9.046875 -4.5 C 9.367188 -5.082031 9.53125 -5.582031 9.53125 -6 C 9.53125 -6.21875 9.425781 -6.328125 9.21875 -6.328125 C 8.726562 -6.328125 8 -6.046875 7.03125 -5.484375 C 6.070312 -4.929688 4.890625 -4.140625 3.484375 -3.109375 C 2.617188 -2.460938 1.828125 -1.828125 1.109375 -1.203125 C 0.390625 -0.578125 -0.195312 -0.0507812 -0.65625 0.375 L -0.875 0.578125 C -1.0625 0.742188 -1.242188 0.898438 -1.421875 1.046875 C -1.609375 1.191406 -1.773438 1.265625 -1.921875 1.265625 C -2.109375 1.265625 -2.269531 1.191406 -2.40625 1.046875 C -2.550781 0.910156 -2.625 0.75 -2.625 0.5625 C -2.625 0.0703125 -2.296875 -0.738281 -1.640625 -1.875 C -0.992188 -3.007812 -0.046875 -4.4375 1.203125 -6.15625 C 1.210938 -6.1875 1.238281 -6.222656 1.28125 -6.265625 L 1.234375 -6.21875 C 2.097656 -7.40625 3.066406 -8.675781 4.140625 -10.03125 C 5.210938 -11.382812 6.347656 -12.78125 7.546875 -14.21875 C 8.742188 -15.664062 9.976562 -17.117188 11.25 -18.578125 C 12.53125 -20.035156 13.804688 -21.460938 15.078125 -22.859375 C 16.359375 -24.265625 17.609375 -25.601562 18.828125 -26.875 C 20.054688 -28.144531 21.21875 -29.3125 22.3125 -30.375 C 23.414062 -31.445312 24.425781 -32.375 25.34375 -33.15625 C 26.257812 -33.945312 27.046875 -34.554688 27.703125 -34.984375 C 28.367188 -35.421875 28.878906 -35.640625 29.234375 -35.640625 C 29.710938 -35.640625 30.054688 -35.523438 30.265625 -35.296875 C 30.484375 -35.078125 30.59375 -34.765625 30.59375 -34.359375 C 30.59375 -33.898438 30.382812 -33.269531 29.96875 -32.46875 C 29.550781 -31.664062 28.953125 -30.722656 28.171875 -29.640625 C 27.398438 -28.566406 26.46875 -27.390625 25.375 -26.109375 C 24.289062 -24.835938 23.082031 -23.492188 21.75 -22.078125 C 20.414062 -20.671875 18.976562 -19.234375 17.4375 -17.765625 C 15.90625 -16.304688 14.296875 -14.851562 12.609375 -13.40625 C 10.921875 -11.96875 9.1875 -10.570312 7.40625 -9.21875 C 5.632812 -7.875 3.84375 -6.613281 2.03125 -5.4375 C 1.53125 -4.75 1.078125 -4.109375 0.671875 -3.515625 C 0.265625 -2.921875 -0.0859375 -2.382812 -0.390625 -1.90625 C -0.546875 -1.65625 -0.601562 -1.484375 -0.5625 -1.390625 C -0.519531 -1.304688 -0.351562 -1.394531 -0.0625 -1.65625 C 0.351562 -2.007812 0.800781 -2.382812 1.28125 -2.78125 C 1.757812 -3.1875 2.269531 -3.59375 2.8125 -4 C 5.851562 -6.257812 8.003906 -7.390625 9.265625 -7.390625 C 9.679688 -7.390625 10.015625 -7.265625 10.265625 -7.015625 C 10.515625 -6.773438 10.640625 -6.4375 10.640625 -6 C 10.640625 -5.5625 10.53125 -5.082031 10.3125 -4.5625 C 10.09375 -4.050781 9.78125 -3.523438 9.375 -2.984375 C 10.53125 -3.160156 11.722656 -3.375 12.953125 -3.625 C 14.191406 -3.875 15.410156 -4.203125 16.609375 -4.609375 C 17.804688 -5.023438 18.921875 -5.546875 19.953125 -6.171875 C 20.046875 -6.234375 20.144531 -6.265625 20.25 -6.265625 Z M 29.234375 -34.53125 C 28.941406 -34.53125 28.472656 -34.300781 27.828125 -33.84375 C 27.191406 -33.382812 26.414062 -32.738281 25.5 -31.90625 C 24.582031 -31.070312 23.5625 -30.09375 22.4375 -28.96875 C 21.320312 -27.851562 20.144531 -26.632812 18.90625 -25.3125 C 17.664062 -23.988281 16.394531 -22.601562 15.09375 -21.15625 C 13.789062 -19.71875 12.492188 -18.253906 11.203125 -16.765625 C 9.921875 -15.273438 8.679688 -13.800781 7.484375 -12.34375 C 6.285156 -10.894531 5.171875 -9.515625 4.140625 -8.203125 C 6.046875 -9.546875 7.910156 -10.957031 9.734375 -12.4375 C 11.566406 -13.925781 13.320312 -15.4375 15 -16.96875 C 16.675781 -18.5 18.242188 -20.007812 19.703125 -21.5 C 21.171875 -22.988281 22.503906 -24.410156 23.703125 -25.765625 C 24.898438 -27.117188 25.929688 -28.359375 26.796875 -29.484375 C 27.660156 -30.609375 28.320312 -31.582031 28.78125 -32.40625 C 29.25 -33.226562 29.484375 -33.84375 29.484375 -34.25 C 29.484375 -34.4375 29.398438 -34.53125 29.234375 -34.53125 Z M 3.234375 -0.6875 C 3.234375 -0.65625 3.269531 -0.613281 3.34375 -0.5625 C 3.425781 -0.507812 3.550781 -0.484375 3.71875 -0.484375 C 4.394531 -0.484375 5.191406 -0.789062 6.109375 -1.40625 C 5.265625 -1.28125 4.570312 -1.15625 4.03125 -1.03125 C 3.5 -0.914062 3.234375 -0.800781 3.234375 -0.6875 Z M 3.234375 -0.6875 "/></g></g></g><g fill="#545454" fill-opacity="1"><g transform="translate(137.195311, 207.716516)"><g><path d="M 16.6875 -6.265625 C 16.832031 -6.265625 16.960938 -6.207031 17.078125 -6.09375 C 17.191406 -5.988281 17.25 -5.863281 17.25 -5.71875 C 17.25 -5.5 17.148438 -5.332031 16.953125 -5.21875 C 16.035156 -4.695312 15.023438 -4.320312 13.921875 -4.09375 C 12.828125 -3.863281 11.691406 -3.78125 10.515625 -3.84375 C 9.335938 -3.914062 8.171875 -4.125 7.015625 -4.46875 C 5.867188 -4.820312 4.773438 -5.3125 3.734375 -5.9375 C 3.804688 -5.363281 3.78125 -4.765625 3.65625 -4.140625 C 3.539062 -3.523438 3.347656 -2.925781 3.078125 -2.34375 C 2.804688 -1.757812 2.484375 -1.234375 2.109375 -0.765625 C 1.734375 -0.304688 1.328125 0.0546875 0.890625 0.328125 C 0.460938 0.597656 0.0195312 0.734375 -0.4375 0.734375 C -0.875 0.734375 -1.226562 0.570312 -1.5 0.25 C -1.78125 -0.0703125 -1.921875 -0.5 -1.921875 -1.03125 C -1.921875 -1.675781 -1.734375 -2.351562 -1.359375 -3.0625 C -0.992188 -3.78125 -0.488281 -4.472656 0.15625 -5.140625 C 0.800781 -5.804688 1.546875 -6.394531 2.390625 -6.90625 C 2.421875 -6.9375 2.445312 -6.96875 2.46875 -7 C 2.519531 -7.175781 2.632812 -7.3125 2.8125 -7.40625 C 2.988281 -7.5 3.164062 -7.519531 3.34375 -7.46875 C 3.394531 -7.457031 3.4375 -7.457031 3.46875 -7.46875 C 3.625 -7.550781 3.785156 -7.625 3.953125 -7.6875 C 4.128906 -7.75 4.304688 -7.8125 4.484375 -7.875 C 4.566406 -7.894531 4.625 -7.90625 4.65625 -7.90625 C 4.800781 -7.90625 4.929688 -7.847656 5.046875 -7.734375 C 5.160156 -7.617188 5.21875 -7.488281 5.21875 -7.34375 C 5.21875 -7.070312 5.085938 -6.894531 4.828125 -6.8125 C 4.796875 -6.800781 4.765625 -6.789062 4.734375 -6.78125 C 4.703125 -6.78125 4.671875 -6.769531 4.640625 -6.75 C 4.628906 -6.75 4.625 -6.742188 4.625 -6.734375 C 5.550781 -6.203125 6.53125 -5.785156 7.5625 -5.484375 C 8.601562 -5.179688 9.648438 -5.003906 10.703125 -4.953125 C 11.753906 -4.898438 12.765625 -4.972656 13.734375 -5.171875 C 14.703125 -5.378906 15.597656 -5.710938 16.421875 -6.171875 C 16.492188 -6.234375 16.582031 -6.265625 16.6875 -6.265625 Z M -0.4375 -0.375 C -0.132812 -0.375 0.171875 -0.484375 0.484375 -0.703125 C 0.796875 -0.929688 1.09375 -1.234375 1.375 -1.609375 C 1.65625 -1.992188 1.894531 -2.421875 2.09375 -2.890625 C 2.300781 -3.367188 2.457031 -3.851562 2.5625 -4.34375 C 2.664062 -4.84375 2.691406 -5.316406 2.640625 -5.765625 C 1.960938 -5.316406 1.363281 -4.816406 0.84375 -4.265625 C 0.332031 -3.722656 -0.0664062 -3.171875 -0.359375 -2.609375 C -0.648438 -2.054688 -0.796875 -1.53125 -0.796875 -1.03125 C -0.796875 -0.59375 -0.675781 -0.375 -0.4375 -0.375 Z M -0.4375 -0.375 "/></g></g></g><g fill="#545454" fill-opacity="1"><g transform="translate(152.313097, 207.716516)"><g><path d="M 20.796875 -6.3125 C 20.941406 -6.3125 21.070312 -6.253906 21.1875 -6.140625 C 21.300781 -6.023438 21.359375 -5.898438 21.359375 -5.765625 C 21.359375 -5.566406 21.273438 -5.410156 21.109375 -5.296875 C 20.523438 -4.890625 19.859375 -4.472656 19.109375 -4.046875 C 18.359375 -3.617188 17.570312 -3.203125 16.75 -2.796875 C 15.925781 -2.390625 15.097656 -2.007812 14.265625 -1.65625 C 13.441406 -1.300781 12.644531 -0.988281 11.875 -0.71875 C 11.113281 -0.445312 10.414062 -0.234375 9.78125 -0.078125 C 9.15625 0.078125 8.632812 0.15625 8.21875 0.15625 C 7.351562 0.15625 6.691406 -0.03125 6.234375 -0.40625 C 5.773438 -0.789062 5.546875 -1.34375 5.546875 -2.0625 C 5.546875 -2.4375 5.609375 -2.804688 5.734375 -3.171875 C 5.867188 -3.546875 6.082031 -3.96875 6.375 -4.4375 C 6.457031 -4.570312 6.476562 -4.65625 6.4375 -4.6875 C 6.40625 -4.726562 6.332031 -4.707031 6.21875 -4.625 C 5.851562 -4.320312 5.425781 -3.984375 4.9375 -3.609375 C 4.457031 -3.242188 3.953125 -2.875 3.421875 -2.5 C 2.898438 -2.125 2.390625 -1.773438 1.890625 -1.453125 C 1.390625 -1.128906 0.929688 -0.875 0.515625 -0.6875 C 0.109375 -0.5 -0.21875 -0.40625 -0.46875 -0.40625 C -0.832031 -0.40625 -1.125 -0.515625 -1.34375 -0.734375 C -1.570312 -0.953125 -1.6875 -1.253906 -1.6875 -1.640625 C -1.6875 -2.273438 -1.332031 -3.070312 -0.625 -4.03125 C 0.0820312 -5 1.09375 -6.070312 2.40625 -7.25 C 2.507812 -7.34375 2.632812 -7.390625 2.78125 -7.390625 C 2.925781 -7.390625 3.050781 -7.332031 3.15625 -7.21875 C 3.269531 -7.113281 3.328125 -6.988281 3.328125 -6.84375 C 3.328125 -6.644531 3.265625 -6.503906 3.140625 -6.421875 L 3.15625 -6.4375 C 2 -5.382812 1.085938 -4.441406 0.421875 -3.609375 C -0.242188 -2.773438 -0.578125 -2.148438 -0.578125 -1.734375 C -0.578125 -1.648438 -0.554688 -1.59375 -0.515625 -1.5625 C -0.484375 -1.53125 -0.445312 -1.515625 -0.40625 -1.515625 C -0.03125 -1.515625 0.660156 -1.851562 1.671875 -2.53125 C 2.691406 -3.21875 4.082031 -4.273438 5.84375 -5.703125 C 6.59375 -6.304688 7.207031 -6.800781 7.6875 -7.1875 C 8.164062 -7.570312 8.546875 -7.859375 8.828125 -8.046875 C 9.109375 -8.234375 9.328125 -8.328125 9.484375 -8.328125 C 9.972656 -8.328125 10.191406 -8.148438 10.140625 -7.796875 C 10.097656 -7.441406 9.773438 -6.925781 9.171875 -6.25 C 8.910156 -5.96875 8.632812 -5.648438 8.34375 -5.296875 C 8.050781 -4.953125 7.773438 -4.59375 7.515625 -4.21875 C 7.265625 -3.851562 7.054688 -3.484375 6.890625 -3.109375 C 6.734375 -2.742188 6.65625 -2.394531 6.65625 -2.0625 C 6.65625 -1.675781 6.773438 -1.394531 7.015625 -1.21875 C 7.253906 -1.039062 7.65625 -0.953125 8.21875 -0.953125 C 8.570312 -0.953125 9.035156 -1.023438 9.609375 -1.171875 C 10.191406 -1.316406 10.835938 -1.515625 11.546875 -1.765625 C 12.265625 -2.015625 13.019531 -2.3125 13.8125 -2.65625 C 14.601562 -3 15.394531 -3.363281 16.1875 -3.75 C 16.976562 -4.144531 17.738281 -4.550781 18.46875 -4.96875 C 19.207031 -5.382812 19.875 -5.796875 20.46875 -6.203125 C 20.550781 -6.273438 20.660156 -6.3125 20.796875 -6.3125 Z M 20.796875 -6.3125 "/></g></g></g><g fill="#545454" fill-opacity="1"><g transform="translate(171.507594, 207.716516)"><g><path d="M 28.421875 -16.3125 C 28.578125 -16.300781 28.707031 -16.238281 28.8125 -16.125 C 28.914062 -16.019531 28.96875 -15.894531 28.96875 -15.75 C 28.96875 -15.59375 28.910156 -15.457031 28.796875 -15.34375 C 28.691406 -15.238281 28.5625 -15.1875 28.40625 -15.1875 L 28.375 -15.1875 C 25.476562 -15.300781 22.5 -15.359375 19.4375 -15.359375 C 16.382812 -15.359375 13.316406 -15.296875 10.234375 -15.171875 C 7.367188 -11.796875 4.539062 -8.359375 1.75 -4.859375 C -1.03125 -1.367188 -3.703125 2.132812 -6.265625 5.65625 C -8.828125 9.175781 -11.222656 12.671875 -13.453125 16.140625 C -13.359375 16.285156 -13.378906 16.476562 -13.515625 16.71875 C -13.984375 17.507812 -14.40625 17.90625 -14.78125 17.90625 C -15.03125 17.90625 -15.195312 17.832031 -15.28125 17.6875 C -15.375 17.539062 -15.378906 17.335938 -15.296875 17.078125 L -15.296875 17.0625 C -15.234375 16.882812 -15.140625 16.695312 -15.015625 16.5 C -12.796875 13 -10.40625 9.472656 -7.84375 5.921875 C -5.28125 2.378906 -2.601562 -1.15625 0.1875 -4.6875 C 2.988281 -8.21875 5.832031 -11.691406 8.71875 -15.109375 C 5.800781 -14.972656 2.9375 -14.785156 0.125 -14.546875 C -2.675781 -14.304688 -5.351562 -14.023438 -7.90625 -13.703125 L -7.984375 -13.703125 C -8.140625 -13.703125 -8.269531 -13.753906 -8.375 -13.859375 C -8.488281 -13.960938 -8.546875 -14.09375 -8.546875 -14.25 C -8.546875 -14.394531 -8.492188 -14.519531 -8.390625 -14.625 C -8.296875 -14.738281 -8.179688 -14.800781 -8.046875 -14.8125 C -5.304688 -15.15625 -2.441406 -15.445312 0.546875 -15.6875 C 3.546875 -15.9375 6.597656 -16.128906 9.703125 -16.265625 C 11.578125 -18.441406 13.492188 -20.632812 15.453125 -22.84375 C 17.421875 -25.0625 19.441406 -27.289062 21.515625 -29.53125 C 21.609375 -29.644531 21.738281 -29.703125 21.90625 -29.703125 C 22.0625 -29.703125 22.191406 -29.648438 22.296875 -29.546875 C 22.410156 -29.441406 22.46875 -29.3125 22.46875 -29.15625 C 22.46875 -29 22.414062 -28.875 22.3125 -28.78125 C 20.488281 -26.789062 18.644531 -24.753906 16.78125 -22.671875 C 14.925781 -20.585938 13.070312 -18.472656 11.21875 -16.328125 C 14.070312 -16.429688 16.945312 -16.484375 19.84375 -16.484375 C 22.75 -16.484375 25.609375 -16.425781 28.421875 -16.3125 Z M 28.421875 -16.3125 "/></g></g></g><g fill="#545454" fill-opacity="1"><g transform="translate(181.94643, 207.716516)"><g><path d="M 5.0625 -8.828125 C 4.90625 -8.828125 4.773438 -8.878906 4.671875 -8.984375 C 4.566406 -9.097656 4.515625 -9.234375 4.515625 -9.390625 C 4.515625 -9.515625 4.550781 -9.628906 4.625 -9.734375 L 5.53125 -10.921875 C 5.644531 -11.054688 5.785156 -11.125 5.953125 -11.125 C 6.109375 -11.125 6.238281 -11.066406 6.34375 -10.953125 C 6.457031 -10.847656 6.515625 -10.71875 6.515625 -10.5625 C 6.515625 -10.4375 6.472656 -10.316406 6.390625 -10.203125 C 6.316406 -10.128906 6.21875 -10.007812 6.09375 -9.84375 C 5.976562 -9.675781 5.863281 -9.519531 5.75 -9.375 C 5.707031 -9.300781 5.660156 -9.238281 5.609375 -9.1875 C 5.566406 -9.132812 5.535156 -9.085938 5.515625 -9.046875 C 5.398438 -8.898438 5.25 -8.828125 5.0625 -8.828125 Z M 0.59375 0.5625 C -0.0625 0.5625 -0.570312 0.382812 -0.9375 0.03125 C -1.300781 -0.3125 -1.484375 -0.789062 -1.484375 -1.40625 C -1.484375 -2.039062 -1.109375 -2.921875 -0.359375 -4.046875 C 0.390625 -5.179688 1.445312 -6.445312 2.8125 -7.84375 C 2.925781 -7.957031 3.0625 -8.015625 3.21875 -8.015625 C 3.351562 -8.015625 3.476562 -7.957031 3.59375 -7.84375 C 3.707031 -7.726562 3.765625 -7.597656 3.765625 -7.453125 C 3.765625 -7.316406 3.71875 -7.195312 3.625 -7.09375 L 3.609375 -7.078125 C 2.828125 -6.273438 2.132812 -5.492188 1.53125 -4.734375 C 0.9375 -3.984375 0.46875 -3.320312 0.125 -2.75 C -0.207031 -2.175781 -0.375 -1.726562 -0.375 -1.40625 C -0.375 -1.101562 -0.300781 -0.882812 -0.15625 -0.75 C -0.0078125 -0.625 0.238281 -0.5625 0.59375 -0.5625 C 0.9375 -0.5625 1.40625 -0.644531 2 -0.8125 C 2.601562 -0.976562 3.285156 -1.207031 4.046875 -1.5 C 4.804688 -1.789062 5.601562 -2.125 6.4375 -2.5 C 7.28125 -2.875 8.125 -3.269531 8.96875 -3.6875 C 9.820312 -4.113281 10.632812 -4.539062 11.40625 -4.96875 C 12.175781 -5.394531 12.875 -5.800781 13.5 -6.1875 C 13.625 -6.238281 13.722656 -6.265625 13.796875 -6.265625 C 13.929688 -6.265625 14.054688 -6.207031 14.171875 -6.09375 C 14.285156 -5.988281 14.34375 -5.863281 14.34375 -5.71875 C 14.34375 -5.5 14.253906 -5.335938 14.078125 -5.234375 C 13.460938 -4.835938 12.753906 -4.421875 11.953125 -3.984375 C 11.160156 -3.546875 10.328125 -3.109375 9.453125 -2.671875 C 8.578125 -2.242188 7.695312 -1.832031 6.8125 -1.4375 C 5.9375 -1.050781 5.097656 -0.707031 4.296875 -0.40625 C 3.492188 -0.113281 2.769531 0.117188 2.125 0.296875 C 1.488281 0.472656 0.976562 0.5625 0.59375 0.5625 Z M 0.59375 0.5625 "/></g></g></g><g fill="#545454" fill-opacity="1"><g transform="translate(194.161109, 207.716516)"><g><path d="M 19.109375 -6.265625 C 19.242188 -6.265625 19.367188 -6.207031 19.484375 -6.09375 C 19.597656 -5.988281 19.65625 -5.863281 19.65625 -5.71875 C 19.65625 -5.539062 19.582031 -5.394531 19.4375 -5.28125 C 17.40625 -3.800781 15.445312 -2.550781 13.5625 -1.53125 C 11.6875 -0.519531 9.863281 0.226562 8.09375 0.71875 C 6.332031 1.207031 4.609375 1.40625 2.921875 1.3125 L 2.890625 1.359375 C 2.859375 1.609375 2.8125 1.867188 2.75 2.140625 C 2.695312 2.421875 2.628906 2.710938 2.546875 3.015625 C 2.398438 3.554688 2.132812 4.207031 1.75 4.96875 C 1.375 5.726562 0.90625 6.5625 0.34375 7.46875 C -0.21875 8.382812 -0.84375 9.34375 -1.53125 10.34375 C -2.21875 11.34375 -2.941406 12.359375 -3.703125 13.390625 C -4.472656 14.421875 -5.257812 15.4375 -6.0625 16.4375 C -7.695312 18.445312 -9.179688 20.175781 -10.515625 21.625 C -11.859375 23.082031 -13.015625 24.195312 -13.984375 24.96875 C -14.953125 25.738281 -15.679688 26.125 -16.171875 26.125 C -16.472656 26.125 -16.710938 26.007812 -16.890625 25.78125 C -17.078125 25.550781 -17.148438 25.269531 -17.109375 24.9375 C -17.078125 24.738281 -16.878906 24.359375 -16.515625 23.796875 C -16.148438 23.242188 -15.648438 22.539062 -15.015625 21.6875 C -14.390625 20.84375 -13.664062 19.890625 -12.84375 18.828125 C -12.019531 17.765625 -11.125 16.632812 -10.15625 15.4375 C -9.195312 14.238281 -8.195312 13.003906 -7.15625 11.734375 C -6.125 10.472656 -5.082031 9.207031 -4.03125 7.9375 C -2.988281 6.664062 -1.96875 5.4375 -0.96875 4.25 C 0.0195312 3.0625 0.953125 1.953125 1.828125 0.921875 C 1.835938 0.867188 1.863281 0.789062 1.90625 0.6875 C 1.945312 0.582031 2 0.492188 2.0625 0.421875 L 2.078125 0.40625 C 2.160156 0.332031 2.226562 0.273438 2.28125 0.234375 C 2.34375 0.191406 2.394531 0.171875 2.4375 0.171875 L 4.796875 -2.59375 C 5.003906 -2.832031 5.195312 -3.054688 5.375 -3.265625 C 5.5625 -3.484375 5.726562 -3.679688 5.875 -3.859375 C 6.070312 -4.097656 6.257812 -4.316406 6.4375 -4.515625 C 6.613281 -4.710938 6.773438 -4.898438 6.921875 -5.078125 L 6.859375 -5.03125 C 6.628906 -4.84375 6.394531 -4.648438 6.15625 -4.453125 C 5.925781 -4.265625 5.679688 -4.070312 5.421875 -3.875 C 3.796875 -2.570312 2.46875 -1.613281 1.4375 -1 C 0.414062 -0.382812 -0.382812 -0.078125 -0.96875 -0.078125 C -1.425781 -0.078125 -1.757812 -0.203125 -1.96875 -0.453125 C -2.1875 -0.710938 -2.257812 -1.066406 -2.1875 -1.515625 C -2.09375 -2.015625 -1.867188 -2.546875 -1.515625 -3.109375 C -1.160156 -3.671875 -0.722656 -4.21875 -0.203125 -4.75 C 0.316406 -5.289062 0.878906 -5.78125 1.484375 -6.21875 C 2.085938 -6.65625 2.6875 -7 3.28125 -7.25 C 3.882812 -7.507812 4.4375 -7.640625 4.9375 -7.640625 C 5.457031 -7.640625 5.867188 -7.554688 6.171875 -7.390625 C 6.484375 -7.222656 6.75 -6.941406 6.96875 -6.546875 C 7.53125 -7.015625 7.972656 -7.367188 8.296875 -7.609375 C 8.617188 -7.859375 8.875 -8.03125 9.0625 -8.125 C 9.25 -8.226562 9.398438 -8.28125 9.515625 -8.28125 C 9.878906 -8.28125 10.082031 -8.175781 10.125 -7.96875 C 10.175781 -7.769531 10.109375 -7.492188 9.921875 -7.140625 C 9.734375 -6.796875 9.460938 -6.398438 9.109375 -5.953125 C 8.765625 -5.515625 8.378906 -5.050781 7.953125 -4.5625 C 7.535156 -4.070312 7.128906 -3.59375 6.734375 -3.125 C 6.242188 -2.5625 5.757812 -2.003906 5.28125 -1.453125 C 4.800781 -0.898438 4.320312 -0.34375 3.84375 0.21875 C 5.382812 0.207031 6.941406 -0.046875 8.515625 -0.546875 C 10.097656 -1.046875 11.734375 -1.769531 13.421875 -2.71875 C 15.109375 -3.664062 16.882812 -4.804688 18.75 -6.140625 C 18.851562 -6.222656 18.972656 -6.265625 19.109375 -6.265625 Z M 4.734375 -4.734375 C 4.972656 -4.921875 5.203125 -5.109375 5.421875 -5.296875 C 5.648438 -5.492188 5.867188 -5.679688 6.078125 -5.859375 C 5.984375 -6.035156 5.851562 -6.191406 5.6875 -6.328125 C 5.519531 -6.460938 5.269531 -6.53125 4.9375 -6.53125 C 4.550781 -6.53125 4.109375 -6.414062 3.609375 -6.1875 C 3.109375 -5.96875 2.597656 -5.664062 2.078125 -5.28125 C 1.554688 -4.894531 1.066406 -4.472656 0.609375 -4.015625 C 0.160156 -3.554688 -0.210938 -3.09375 -0.515625 -2.625 C -0.816406 -2.164062 -1.003906 -1.734375 -1.078125 -1.328125 C -1.085938 -1.253906 -1.101562 -1.207031 -1.125 -1.1875 C -1.144531 -1.164062 -1.15625 -1.15625 -1.15625 -1.15625 C -1.15625 -1.15625 -1.140625 -1.160156 -1.109375 -1.171875 C -1.085938 -1.179688 -1.039062 -1.1875 -0.96875 -1.1875 C -0.101562 -1.1875 1.796875 -2.367188 4.734375 -4.734375 Z M -6.9375 15.75 C -5.882812 14.4375 -4.90625 13.160156 -4 11.921875 C -3.09375 10.679688 -2.28125 9.515625 -1.5625 8.421875 C -0.851562 7.335938 -0.253906 6.351562 0.234375 5.46875 C 0.722656 4.582031 1.082031 3.832031 1.3125 3.21875 C -0.289062 5.113281 -1.84375 6.96875 -3.34375 8.78125 C -4.84375 10.601562 -6.25 12.328125 -7.5625 13.953125 C -8.882812 15.585938 -10.078125 17.082031 -11.140625 18.4375 C -12.210938 19.789062 -13.125 20.96875 -13.875 21.96875 C -14.632812 22.96875 -15.191406 23.742188 -15.546875 24.296875 C -15.597656 24.367188 -15.640625 24.453125 -15.671875 24.546875 C -15.703125 24.640625 -15.679688 24.695312 -15.609375 24.71875 C -15.546875 24.738281 -15.410156 24.695312 -15.203125 24.59375 C -14.992188 24.476562 -14.625 24.175781 -14.09375 23.6875 C -13.5625 23.195312 -12.914062 22.550781 -12.15625 21.75 C -11.40625 20.945312 -10.582031 20.035156 -9.6875 19.015625 C -8.789062 18.003906 -7.875 16.914062 -6.9375 15.75 Z M -6.9375 15.75 "/></g></g></g><g fill="#545454" fill-opacity="1"><g transform="translate(211.687862, 207.716516)"><g><path d="M 20.796875 -6.3125 C 20.941406 -6.3125 21.070312 -6.253906 21.1875 -6.140625 C 21.300781 -6.023438 21.359375 -5.898438 21.359375 -5.765625 C 21.359375 -5.566406 21.273438 -5.410156 21.109375 -5.296875 C 20.523438 -4.890625 19.859375 -4.472656 19.109375 -4.046875 C 18.359375 -3.617188 17.570312 -3.203125 16.75 -2.796875 C 15.925781 -2.390625 15.097656 -2.007812 14.265625 -1.65625 C 13.441406 -1.300781 12.644531 -0.988281 11.875 -0.71875 C 11.113281 -0.445312 10.414062 -0.234375 9.78125 -0.078125 C 9.15625 0.078125 8.632812 0.15625 8.21875 0.15625 C 7.351562 0.15625 6.691406 -0.03125 6.234375 -0.40625 C 5.773438 -0.789062 5.546875 -1.34375 5.546875 -2.0625 C 5.546875 -2.4375 5.609375 -2.804688 5.734375 -3.171875 C 5.867188 -3.546875 6.082031 -3.96875 6.375 -4.4375 C 6.457031 -4.570312 6.476562 -4.65625 6.4375 -4.6875 C 6.40625 -4.726562 6.332031 -4.707031 6.21875 -4.625 C 5.851562 -4.320312 5.425781 -3.984375 4.9375 -3.609375 C 4.457031 -3.242188 3.953125 -2.875 3.421875 -2.5 C 2.898438 -2.125 2.390625 -1.773438 1.890625 -1.453125 C 1.390625 -1.128906 0.929688 -0.875 0.515625 -0.6875 C 0.109375 -0.5 -0.21875 -0.40625 -0.46875 -0.40625 C -0.832031 -0.40625 -1.125 -0.515625 -1.34375 -0.734375 C -1.570312 -0.953125 -1.6875 -1.253906 -1.6875 -1.640625 C -1.6875 -2.273438 -1.332031 -3.070312 -0.625 -4.03125 C 0.0820312 -5 1.09375 -6.070312 2.40625 -7.25 C 2.507812 -7.34375 2.632812 -7.390625 2.78125 -7.390625 C 2.925781 -7.390625 3.050781 -7.332031 3.15625 -7.21875 C 3.269531 -7.113281 3.328125 -6.988281 3.328125 -6.84375 C 3.328125 -6.644531 3.265625 -6.503906 3.140625 -6.421875 L 3.15625 -6.4375 C 2 -5.382812 1.085938 -4.441406 0.421875 -3.609375 C -0.242188 -2.773438 -0.578125 -2.148438 -0.578125 -1.734375 C -0.578125 -1.648438 -0.554688 -1.59375 -0.515625 -1.5625 C -0.484375 -1.53125 -0.445312 -1.515625 -0.40625 -1.515625 C -0.03125 -1.515625 0.660156 -1.851562 1.671875 -2.53125 C 2.691406 -3.21875 4.082031 -4.273438 5.84375 -5.703125 C 6.59375 -6.304688 7.207031 -6.800781 7.6875 -7.1875 C 8.164062 -7.570312 8.546875 -7.859375 8.828125 -8.046875 C 9.109375 -8.234375 9.328125 -8.328125 9.484375 -8.328125 C 9.972656 -8.328125 10.191406 -8.148438 10.140625 -7.796875 C 10.097656 -7.441406 9.773438 -6.925781 9.171875 -6.25 C 8.910156 -5.96875 8.632812 -5.648438 8.34375 -5.296875 C 8.050781 -4.953125 7.773438 -4.59375 7.515625 -4.21875 C 7.265625 -3.851562 7.054688 -3.484375 6.890625 -3.109375 C 6.734375 -2.742188 6.65625 -2.394531 6.65625 -2.0625 C 6.65625 -1.675781 6.773438 -1.394531 7.015625 -1.21875 C 7.253906 -1.039062 7.65625 -0.953125 8.21875 -0.953125 C 8.570312 -0.953125 9.035156 -1.023438 9.609375 -1.171875 C 10.191406 -1.316406 10.835938 -1.515625 11.546875 -1.765625 C 12.265625 -2.015625 13.019531 -2.3125 13.8125 -2.65625 C 14.601562 -3 15.394531 -3.363281 16.1875 -3.75 C 16.976562 -4.144531 17.738281 -4.550781 18.46875 -4.96875 C 19.207031 -5.382812 19.875 -5.796875 20.46875 -6.203125 C 20.550781 -6.273438 20.660156 -6.3125 20.796875 -6.3125 Z M 20.796875 -6.3125 "/></g></g></g><g fill="#545454" fill-opacity="1"><g transform="translate(230.882359, 207.716516)"><g><path d="M 15.9375 -6.265625 C 16.09375 -6.265625 16.222656 -6.207031 16.328125 -6.09375 C 16.441406 -5.988281 16.5 -5.863281 16.5 -5.71875 C 16.5 -5.519531 16.421875 -5.367188 16.265625 -5.265625 C 15.273438 -4.546875 14.226562 -3.882812 13.125 -3.28125 C 12.019531 -2.6875 10.921875 -2.160156 9.828125 -1.703125 C 8.742188 -1.253906 7.710938 -0.878906 6.734375 -0.578125 C 5.753906 -0.273438 4.882812 -0.046875 4.125 0.109375 C 3.363281 0.273438 2.765625 0.359375 2.328125 0.359375 C 1.234375 0.359375 0.390625 0.160156 -0.203125 -0.234375 C -0.804688 -0.640625 -1.109375 -1.210938 -1.109375 -1.953125 C -1.109375 -2.429688 -0.984375 -2.941406 -0.734375 -3.484375 C -0.484375 -4.035156 -0.148438 -4.570312 0.265625 -5.09375 C 0.691406 -5.613281 1.164062 -6.085938 1.6875 -6.515625 C 2.207031 -6.941406 2.738281 -7.28125 3.28125 -7.53125 C 3.820312 -7.78125 4.332031 -7.90625 4.8125 -7.90625 C 5.25 -7.90625 5.597656 -7.789062 5.859375 -7.5625 C 6.117188 -7.34375 6.25 -7.046875 6.25 -6.671875 C 6.25 -6.410156 6.160156 -6.15625 5.984375 -5.90625 C 5.804688 -5.65625 5.5625 -5.421875 5.25 -5.203125 C 4.945312 -4.992188 4.617188 -4.828125 4.265625 -4.703125 C 3.910156 -4.578125 3.554688 -4.515625 3.203125 -4.515625 C 2.484375 -4.515625 1.910156 -4.601562 1.484375 -4.78125 C 1.015625 -4.28125 0.648438 -3.773438 0.390625 -3.265625 C 0.128906 -2.765625 0 -2.328125 0 -1.953125 C 0 -1.148438 0.773438 -0.75 2.328125 -0.75 C 2.734375 -0.75 3.296875 -0.820312 4.015625 -0.96875 C 4.734375 -1.125 5.554688 -1.347656 6.484375 -1.640625 C 7.410156 -1.929688 8.394531 -2.296875 9.4375 -2.734375 C 10.488281 -3.171875 11.539062 -3.675781 12.59375 -4.25 C 13.644531 -4.820312 14.648438 -5.457031 15.609375 -6.15625 C 15.691406 -6.226562 15.800781 -6.265625 15.9375 -6.265625 Z M 5.140625 -6.671875 C 5.140625 -6.710938 5.117188 -6.742188 5.078125 -6.765625 C 5.046875 -6.785156 4.957031 -6.796875 4.8125 -6.796875 C 4.5 -6.796875 4.128906 -6.695312 3.703125 -6.5 C 3.285156 -6.300781 2.851562 -6.023438 2.40625 -5.671875 C 2.625 -5.640625 2.890625 -5.625 3.203125 -5.625 C 3.585938 -5.625 3.921875 -5.6875 4.203125 -5.8125 C 4.492188 -5.9375 4.722656 -6.082031 4.890625 -6.25 C 5.054688 -6.414062 5.140625 -6.554688 5.140625 -6.671875 Z M 5.140625 -6.671875 "/></g></g></g><g clip-path="url(#53cb23f7b1)"><g clip-path="url(#a8e30204cb)"><g clip-path="url(#a42a9cdb63)"><path fill="#545454" d="M 48.972656 203.796875 C 49.65625 204.027344 50.292969 204.253906 50.941406 204.449219 C 51.585938 204.644531 52.109375 205.046875 52.613281 205.46875 C 52.96875 205.769531 53.089844 206.175781 52.9375 206.628906 C 52.839844 206.929688 52.734375 207.238281 52.589844 207.515625 C 52.058594 208.539062 51.148438 208.890625 50.042969 208.613281 C 48.601562 208.253906 48.148438 207.703125 47.859375 205.953125 C 47.800781 205.582031 47.835938 205.199219 47.824219 204.761719 C 47.578125 204.796875 47.320312 204.808594 47.078125 204.875 C 46.128906 205.128906 45.226562 205.472656 44.484375 206.164062 C 44.222656 206.402344 43.851562 206.53125 43.519531 206.671875 C 43.296875 206.761719 43.230469 206.671875 43.300781 206.4375 C 43.476562 205.84375 43.847656 205.320312 44.351562 204.953125 C 45.433594 204.160156 46.601562 203.601562 47.988281 203.632812 C 48.0625 203.636719 48.1875 203.550781 48.214844 203.476562 C 48.898438 201.734375 49.96875 200.265625 51.21875 198.882812 C 52.644531 197.304688 54.375 196.023438 56.300781 195.121094 C 57.976562 194.328125 59.667969 193.484375 61.476562 193.050781 C 64.253906 192.390625 67.070312 192.285156 69.910156 192.695312 C 72.867188 193.121094 75.773438 193.78125 78.683594 194.40625 C 80.613281 194.824219 82.550781 195.253906 84.527344 195.324219 C 86.046875 195.378906 87.574219 195.320312 89.09375 195.234375 C 90.304688 195.171875 91.515625 195.042969 92.714844 194.851562 C 94.15625 194.625 95.46875 193.992188 96.789062 193.414062 C 98.511719 192.671875 99.898438 191.527344 100.890625 189.925781 C 100.996094 189.757812 101.109375 189.589844 101.335938 189.675781 C 101.5625 189.765625 101.542969 189.984375 101.503906 190.164062 C 101.390625 190.707031 101.140625 191.207031 100.769531 191.617188 C 99.730469 192.765625 98.582031 193.765625 97.132812 194.378906 C 95.722656 194.984375 94.339844 195.65625 92.808594 195.917969 C 91.820312 196.082031 90.816406 196.210938 89.8125 196.285156 C 88.335938 196.394531 86.851562 196.492188 85.367188 196.496094 C 83.171875 196.507812 81.03125 196.054688 78.890625 195.625 C 76.503906 195.148438 74.125 194.589844 71.730469 194.140625 C 69.765625 193.769531 67.777344 193.476562 65.757812 193.589844 C 64.335938 193.667969 62.875 193.664062 61.53125 194.125 C 58.769531 195.074219 55.941406 195.945312 53.601562 197.792969 C 51.746094 199.257812 50.164062 200.976562 49.199219 203.179688 C 49.113281 203.375 49.050781 203.585938 48.972656 203.796875 Z M 48.726562 204.914062 C 48.585938 205.570312 48.71875 206.144531 48.914062 206.714844 C 49.175781 207.457031 49.890625 207.898438 50.71875 207.84375 C 51.441406 207.796875 51.851562 207.382812 52.035156 206.53125 C 52.039062 206.523438 52.046875 206.511719 52.039062 206.503906 C 51.992188 206.386719 51.980469 206.222656 51.894531 206.15625 C 50.972656 205.4375 49.882812 205.148438 48.726562 204.914062 Z M 48.726562 204.914062 " fill-opacity="1" fill-rule="nonzero"/></g></g></g><g clip-path="url(#3aaf927ed9)"><g clip-path="url(#2d033e2afe)"><g clip-path="url(#c1a03d37cf)"><path fill="#545454" d="M 325.867188 197.621094 C 325.214844 197.3125 324.609375 197.015625 323.988281 196.746094 C 323.367188 196.472656 322.894531 196.015625 322.445312 195.535156 C 322.128906 195.195312 322.050781 194.78125 322.257812 194.34375 C 322.390625 194.058594 322.53125 193.765625 322.707031 193.503906 C 323.355469 192.550781 324.300781 192.3125 325.367188 192.714844 C 326.753906 193.238281 327.140625 193.839844 327.222656 195.613281 C 327.238281 195.984375 327.160156 196.363281 327.117188 196.800781 C 327.367188 196.789062 327.625 196.808594 327.871094 196.773438 C 328.847656 196.632812 329.78125 196.398438 330.601562 195.796875 C 330.886719 195.589844 331.269531 195.503906 331.617188 195.40625 C 331.851562 195.34375 331.90625 195.4375 331.808594 195.660156 C 331.5625 196.230469 331.132812 196.707031 330.589844 197.011719 C 329.421875 197.675781 328.195312 198.09375 326.824219 197.898438 C 326.75 197.886719 326.617188 197.957031 326.582031 198.027344 C 325.695312 199.675781 324.464844 201.011719 323.058594 202.238281 C 321.460938 203.640625 319.59375 204.710938 317.570312 205.382812 C 315.816406 205.972656 314.039062 206.613281 312.191406 206.832031 C 309.355469 207.164062 306.542969 206.941406 303.773438 206.199219 C 300.886719 205.433594 298.078125 204.433594 295.261719 203.472656 C 293.390625 202.835938 291.519531 202.179688 289.566406 201.878906 C 288.0625 201.648438 286.539062 201.527344 285.019531 201.433594 C 283.808594 201.355469 282.589844 201.34375 281.375 201.390625 C 279.917969 201.449219 278.542969 201.925781 277.164062 202.34375 C 275.367188 202.878906 273.855469 203.851562 272.683594 205.328125 C 272.558594 205.484375 272.425781 205.636719 272.210938 205.523438 C 271.996094 205.410156 272.039062 205.191406 272.101562 205.019531 C 272.273438 204.496094 272.585938 204.027344 273 203.660156 C 274.167969 202.644531 275.425781 201.785156 276.933594 201.34375 C 278.40625 200.910156 279.859375 200.402344 281.40625 200.324219 C 282.410156 200.277344 283.421875 200.265625 284.425781 200.308594 C 285.90625 200.375 287.390625 200.449219 288.867188 200.617188 C 291.046875 200.863281 293.125 201.5625 295.195312 202.242188 C 297.511719 202.992188 299.808594 203.824219 302.136719 204.550781 C 304.042969 205.148438 305.980469 205.671875 308 205.796875 C 309.421875 205.882812 310.875 206.0625 312.261719 205.761719 C 315.117188 205.140625 318.023438 204.605469 320.566406 203.042969 C 322.582031 201.804688 324.351562 200.285156 325.566406 198.210938 C 325.679688 198.023438 325.761719 197.824219 325.867188 197.621094 Z M 326.238281 196.539062 C 326.457031 195.90625 326.390625 195.320312 326.261719 194.730469 C 326.089844 193.964844 325.433594 193.441406 324.601562 193.398438 C 323.882812 193.363281 323.421875 193.722656 323.144531 194.546875 C 323.140625 194.554688 323.132812 194.566406 323.132812 194.574219 C 323.167969 194.695312 323.160156 194.859375 323.238281 194.9375 C 324.070312 195.757812 325.121094 196.171875 326.238281 196.539062 Z M 326.238281 196.539062 " fill-opacity="1" fill-rule="nonzero"/></g></g></g><g fill="#545454" fill-opacity="1"><g transform="translate(166.017, 131.98465)"><g><path d="M 0.078125 -2.859375 L -0.5 -5.1875 C -0.757812 -6.25 -1 -7.128906 -1.21875 -7.828125 C -1 -7.929688 -0.800781 -8.003906 -0.625 -8.046875 C -0.113281 -8.171875 0.175781 -8.082031 0.25 -7.78125 C 0.25 -7.75 0.269531 -7.613281 0.3125 -7.375 C 0.363281 -7.132812 0.429688 -6.804688 0.515625 -6.390625 C 0.597656 -5.972656 0.695312 -5.535156 0.8125 -5.078125 C 1.25 -5.617188 1.6875 -6.269531 2.125 -7.03125 C 2.5625 -7.789062 2.84375 -8.414062 2.96875 -8.90625 C 3.195312 -8.894531 3.382812 -8.859375 3.53125 -8.796875 C 3.675781 -8.742188 3.765625 -8.640625 3.796875 -8.484375 C 3.828125 -8.367188 3.800781 -8.203125 3.71875 -7.984375 C 3.644531 -7.765625 3.492188 -7.472656 3.265625 -7.109375 C 3.046875 -6.742188 2.851562 -6.4375 2.6875 -6.1875 C 2.519531 -5.9375 2.253906 -5.546875 1.890625 -5.015625 C 2.035156 -4.867188 2.238281 -4.648438 2.5 -4.359375 C 2.769531 -4.078125 2.972656 -3.863281 3.109375 -3.71875 C 3.253906 -3.570312 3.4375 -3.390625 3.65625 -3.171875 C 3.875 -2.953125 4.050781 -2.789062 4.1875 -2.6875 C 4.320312 -2.582031 4.472656 -2.472656 4.640625 -2.359375 C 4.804688 -2.253906 4.957031 -2.1875 5.09375 -2.15625 C 5.238281 -2.132812 5.367188 -2.140625 5.484375 -2.171875 C 5.597656 -2.203125 5.703125 -2.234375 5.796875 -2.265625 C 5.890625 -2.160156 5.953125 -2.050781 5.984375 -1.9375 C 6.023438 -1.769531 5.976562 -1.613281 5.84375 -1.46875 C 5.707031 -1.332031 5.507812 -1.234375 5.25 -1.171875 C 4.875 -1.078125 4.484375 -1.144531 4.078125 -1.375 C 3.671875 -1.601562 3.304688 -1.867188 2.984375 -2.171875 C 2.671875 -2.484375 2.132812 -3.070312 1.375 -3.9375 C 1.351562 -3.945312 1.332031 -3.957031 1.3125 -3.96875 C 1.300781 -3.988281 1.285156 -4.007812 1.265625 -4.03125 C 1.242188 -4.0625 1.226562 -4.085938 1.21875 -4.109375 L 1.078125 -3.953125 L 1.359375 -2.828125 C 1.609375 -1.785156 1.875 -1.046875 2.15625 -0.609375 C 1.945312 -0.484375 1.710938 -0.390625 1.453125 -0.328125 C 1.160156 -0.253906 0.953125 -0.253906 0.828125 -0.328125 C 0.710938 -0.398438 0.625 -0.554688 0.5625 -0.796875 C 0.53125 -0.910156 0.457031 -1.210938 0.34375 -1.703125 C 0.226562 -2.203125 0.140625 -2.585938 0.078125 -2.859375 Z M 0.078125 -2.859375 "/></g></g></g><g fill="#545454" fill-opacity="1"><g transform="translate(178.720622, 129.475365)"><g><path d="M 0.546875 -2.71875 L 0.359375 -5.203125 C 0.265625 -6.316406 0.164062 -7.226562 0.0625 -7.9375 C 0.25 -7.988281 0.46875 -8.023438 0.71875 -8.046875 C 1.226562 -8.078125 1.492188 -7.941406 1.515625 -7.640625 C 1.515625 -7.597656 1.515625 -7.4375 1.515625 -7.15625 C 1.523438 -6.882812 1.539062 -6.539062 1.5625 -6.125 C 1.582031 -5.71875 1.601562 -5.332031 1.625 -4.96875 L 1.703125 -3.9375 C 1.828125 -2.375 1.929688 -1.425781 2.015625 -1.09375 C 2.335938 -1.101562 2.59375 -1.113281 2.78125 -1.125 C 3.945312 -1.21875 4.691406 -1.367188 5.015625 -1.578125 C 5.117188 -1.410156 5.179688 -1.21875 5.203125 -1 C 5.222656 -0.738281 5.132812 -0.5625 4.9375 -0.46875 C 4.738281 -0.382812 4.40625 -0.320312 3.9375 -0.28125 L 2.890625 -0.203125 C 2.191406 -0.148438 1.664062 -0.113281 1.3125 -0.09375 C 1.09375 -0.09375 0.9375 -0.140625 0.84375 -0.234375 C 0.75 -0.335938 0.695312 -0.507812 0.6875 -0.75 C 0.675781 -0.875 0.65625 -1.164062 0.625 -1.625 C 0.59375 -2.09375 0.566406 -2.457031 0.546875 -2.71875 Z M 0.546875 -2.71875 "/></g></g></g><g fill="#545454" fill-opacity="1"><g transform="translate(190.655216, 129.064121)"><g><path d="M 6.625 -6.8125 C 6.601562 -6.539062 6.300781 -6.035156 5.71875 -5.296875 C 5.132812 -4.566406 4.5625 -3.914062 4 -3.34375 L 3.890625 -2.09375 C 3.796875 -1.039062 3.804688 -0.257812 3.921875 0.25 C 3.691406 0.300781 3.441406 0.316406 3.171875 0.296875 C 2.878906 0.273438 2.679688 0.207031 2.578125 0.09375 C 2.484375 -0.0195312 2.441406 -0.195312 2.453125 -0.4375 C 2.460938 -0.5625 2.492188 -0.875 2.546875 -1.375 C 2.609375 -1.875 2.648438 -2.265625 2.671875 -2.546875 L 2.75 -3.40625 C 1.8125 -5.570312 1.066406 -6.878906 0.515625 -7.328125 C 0.648438 -7.484375 0.820312 -7.613281 1.03125 -7.71875 C 1.25 -7.820312 1.445312 -7.867188 1.625 -7.859375 C 1.90625 -7.835938 2.128906 -7.679688 2.296875 -7.390625 C 2.804688 -6.484375 3.269531 -5.457031 3.6875 -4.3125 C 4.101562 -4.851562 4.5 -5.460938 4.875 -6.140625 C 5.25 -6.828125 5.472656 -7.3125 5.546875 -7.59375 C 6.296875 -7.488281 6.65625 -7.226562 6.625 -6.8125 Z M 6.625 -6.8125 "/></g></g></g><g fill="#545454" fill-opacity="1"><g transform="translate(203.285238, 130.713898)"><g><path d="M 1.390625 -2.40625 L 2 -4.8125 C 2.269531 -5.894531 2.46875 -6.796875 2.59375 -7.515625 C 2.78125 -7.503906 2.992188 -7.46875 3.234375 -7.40625 C 3.734375 -7.28125 3.941406 -7.0625 3.859375 -6.75 C 3.847656 -6.71875 3.800781 -6.566406 3.71875 -6.296875 C 3.632812 -6.035156 3.535156 -5.707031 3.421875 -5.3125 C 3.304688 -4.925781 3.203125 -4.554688 3.109375 -4.203125 L 2.859375 -3.203125 C 2.472656 -1.671875 2.273438 -0.734375 2.265625 -0.390625 C 2.554688 -0.296875 2.796875 -0.222656 2.984375 -0.171875 C 4.117188 0.109375 4.878906 0.195312 5.265625 0.09375 C 5.304688 0.289062 5.300781 0.492188 5.25 0.703125 C 5.1875 0.953125 5.046875 1.085938 4.828125 1.109375 C 4.617188 1.140625 4.285156 1.097656 3.828125 0.984375 L 2.8125 0.71875 C 2.125 0.550781 1.609375 0.421875 1.265625 0.328125 C 1.054688 0.253906 0.925781 0.15625 0.875 0.03125 C 0.820312 -0.0820312 0.828125 -0.257812 0.890625 -0.5 C 0.921875 -0.613281 0.992188 -0.894531 1.109375 -1.34375 C 1.222656 -1.789062 1.316406 -2.144531 1.390625 -2.40625 Z M 1.390625 -2.40625 "/></g></g></g><g clip-path="url(#432c90f57e)"><path fill="#545454" d="M 217.746094 172.851562 C 216.703125 171.296875 214.476562 170.242188 213.21875 169.144531 C 211.746094 168.816406 210.476562 168.082031 209.203125 167.5 C 207.855469 166.882812 206.527344 166.382812 205.1875 165.851562 C 201.117188 164.238281 197.238281 162.414062 194.484375 159.574219 C 193.53125 158.589844 192.699219 157.382812 192.117188 156.277344 C 191.761719 155.609375 191.488281 154.417969 190.984375 154.117188 C 190.125 153.609375 188.542969 154.066406 187.691406 153.707031 C 188.488281 150.859375 185.367188 149.835938 185.527344 147.53125 C 185.683594 145.300781 188.269531 145.351562 189.335938 146.601562 C 189.683594 147.011719 189.890625 148.109375 190.878906 147.734375 C 191.222656 147.152344 190.515625 146.507812 190.160156 146.089844 C 189.71875 145.5625 189.179688 145.035156 188.511719 144.851562 C 186.796875 144.382812 184.785156 145.324219 184.601562 147.324219 C 184.332031 150.265625 187.242188 150.421875 186.867188 153.707031 C 185.570312 154.042969 183.992188 153.632812 183.261719 154.117188 C 182.816406 154.414062 182.152344 156.273438 181.71875 157 C 181.140625 157.964844 180.367188 159.03125 179.761719 159.675781 C 176.574219 163.09375 171.640625 164.445312 167 166.46875 C 165.339844 167.195312 163.652344 168.058594 161.957031 168.941406 C 159.671875 170.128906 157.144531 171.28125 156.398438 173.570312 C 156.199219 174.1875 155.882812 175.710938 156.707031 176.453125 C 157.890625 176.777344 159.003906 175.097656 160.308594 174.808594 C 160.953125 174.664062 162.136719 174.808594 163.191406 174.808594 L 166.792969 174.808594 C 178.15625 174.808594 193.910156 174.910156 207.660156 174.910156 C 210.011719 174.910156 212.683594 174.632812 214.453125 175.011719 C 215.742188 175.292969 216.605469 176.921875 218.15625 176.761719 C 219.097656 175.480469 218.398438 173.824219 217.746094 172.851562 Z M 190.058594 146.914062 C 189.472656 146.191406 188.988281 145.375 187.792969 145.265625 C 188.914062 145.039062 189.683594 146.050781 190.058594 146.914062 Z M 186.867188 145.164062 C 187.078125 145.105469 187.652344 145.113281 187.6875 145.164062 C 187.789062 145.296875 187.164062 145.222656 187.070312 145.265625 C 186.699219 145.433594 185.652344 145.902344 185.320312 146.398438 C 185.667969 145.703125 186.457031 145.273438 186.867188 145.164062 Z M 185.117188 146.601562 C 185.53125 146.644531 185.039062 147.367188 185.011719 147.632812 C 185.582031 149.839844 187.597656 151.046875 187.378906 153.707031 C 186.875 153.253906 187.175781 152.917969 187.070312 152.367188 C 186.679688 150.300781 184.289062 149.308594 185.117188 146.601562 Z M 190.878906 154.425781 C 192.128906 156.851562 193.175781 158.941406 195.101562 160.707031 C 198.140625 163.488281 203.386719 165.238281 207.660156 167.085938 C 209.628906 167.941406 211.035156 168.699219 213.011719 169.453125 C 214.761719 170.792969 216.960938 171.679688 217.644531 174.085938 C 213.171875 167.511719 201.140625 166.746094 195.101562 161.527344 C 193.128906 159.824219 191.941406 157.765625 190.675781 155.148438 C 188.960938 154.558594 186.230469 154.160156 184.394531 154.839844 C 183.265625 155.253906 183.265625 156.347656 182.542969 157.101562 C 182.125 156.949219 182.847656 156.273438 182.953125 155.96875 C 182.636719 153.15625 188.4375 153.945312 190.878906 154.425781 Z M 159.074219 170.792969 C 166.15625 165.917969 177.878906 164.796875 182.132812 156.898438 C 182.460938 157.328125 181.851562 157.789062 181.617188 158.234375 C 182.082031 158.152344 182.140625 157.664062 182.335938 157.308594 C 180.4375 161.871094 175.855469 163.679688 170.910156 165.75 C 168.640625 166.699219 166.3125 167.71875 163.910156 168.835938 C 161.152344 170.121094 158.03125 171.421875 156.914062 174.1875 C 156.859375 172.699219 158.054688 171.492188 159.074219 170.792969 Z M 158.457031 175.320312 C 158.398438 175.503906 158.171875 175.335938 158.351562 175.320312 C 164.203125 172.078125 169.90625 168.691406 175.851562 165.542969 C 170.148438 168.898438 164.332031 172.140625 158.457031 175.320312 Z M 187.070312 159.675781 C 188.035156 159.910156 188.402344 160.039062 189.71875 160.90625 C 190.726562 161.570312 191.539062 162.0625 192.425781 162.558594 C 198.828125 166.144531 205.652344 169.785156 211.878906 173.675781 C 206.445312 173.492188 199.597656 173.660156 193.878906 173.6875 L 190.554688 173.660156 C 182.714844 173.457031 173.210938 173.53125 162.675781 173.46875 C 170.667969 168.730469 179.039062 164.375 187.070312 159.675781 Z M 175.957031 165.542969 C 176.808594 164.953125 177.710938 164.417969 178.734375 164 C 178.386719 164.277344 176.835938 165.113281 175.957031 165.542969 Z M 178.941406 163.894531 C 179.734375 163.285156 180.664062 162.804688 181.617188 162.351562 C 180.816406 162.960938 179.875 163.421875 178.941406 163.894531 Z M 161.75 174.394531 C 162.230469 174.449219 163.777344 174 164.324219 174.5 C 163.667969 174.378906 162.128906 174.660156 161.75 174.394531 Z M 164.425781 174.292969 C 165.792969 174.359375 166.402344 174.339844 167.515625 174.394531 C 166.753906 174.503906 165.019531 174.695312 164.425781 174.292969 Z M 167.71875 174.394531 L 168.339844 174.394531 C 176.054688 174.328125 184.300781 174.535156 192.21875 174.292969 C 184.289062 174.242188 173.289062 174.332031 161.75 174.085938 C 162.511719 173.550781 164.6875 173.628906 166.382812 173.675781 C 171.292969 173.804688 178.332031 173.835938 185.113281 173.765625 L 185.175781 173.792969 L 197.589844 173.898438 L 197.570312 173.867188 C 201.085938 173.921875 204.53125 173.914062 207.554688 173.878906 C 209.316406 173.863281 211.195312 173.652344 212.804688 174.1875 C 205.117188 174.402344 199.101562 174.160156 192.320312 174.292969 C 199.785156 174.5625 207.695312 174.269531 213.320312 174.5 C 196.371094 174.65625 182.375 174.6875 167.71875 174.394531 Z M 217.847656 176.25 C 209.433594 171.519531 201.109375 166.703125 192.734375 161.941406 L 192.011719 161.941406 C 190.585938 160.898438 188.875 160.136719 187.277344 159.265625 C 185.550781 160.113281 183.96875 161.101562 182.335938 162.042969 C 179.816406 162.640625 177.410156 164.398438 175.234375 165.644531 C 169.097656 169.164062 162.824219 172.457031 156.707031 175.835938 C 157.675781 171.332031 162.6875 169.398438 166.691406 167.703125 C 169.953125 166.328125 173.277344 165.125 176.058594 163.691406 C 176.289062 163.929688 175.445312 163.964844 175.441406 164.308594 C 178.023438 162.875 180.78125 160.671875 182.542969 157.617188 C 183.011719 156.804688 183.699219 155.117188 184.5 155.042969 C 185.667969 154.9375 186.210938 156.332031 187.378906 156.484375 C 187.257812 156.058594 186.722656 156.046875 186.453125 155.765625 C 187.058594 155.710938 187.730469 156.476562 188.410156 156.691406 C 187.863281 155.96875 186.898438 155.664062 186.042969 155.25 C 185.972656 155.527344 186.253906 155.449219 186.351562 155.558594 C 186.007812 155.726562 185.582031 155.097656 185.117188 155.042969 C 186.832031 154.527344 189.1875 154.644531 190.570312 155.351562 C 191.417969 157.121094 192.210938 158.71875 193.351562 160.085938 C 198.050781 165.726562 207.679688 166.394531 213.527344 170.894531 L 214.039062 170.894531 C 215.253906 172.050781 216.769531 172.902344 217.4375 174.601562 C 216.992188 174.53125 216.804688 174.203125 216.40625 174.085938 C 216.875 174.796875 218.214844 175.03125 217.847656 176.25 Z M 217.847656 176.25 " fill-opacity="1" fill-rule="nonzero"/></g></svg>