<svg xmlns="http://www.w3.org/2000/svg" xmlns:xlink="http://www.w3.org/1999/xlink" width="500" zoomAndPan="magnify" viewBox="0 0 375 374.999991" height="500" preserveAspectRatio="xMidYMid meet" version="1.0"><defs><g/></defs><g fill="#545454" fill-opacity="0.3882"><g transform="translate(59.851269, 217.0227)"><g><path d="M 0.4375 -16.84375 L -2.90625 -30.53125 C -4.457031 -36.84375 -5.898438 -42.039062 -7.234375 -46.125 C -5.929688 -46.6875 -4.757812 -47.097656 -3.71875 -47.359375 C -0.664062 -48.109375 1.070312 -47.613281 1.5 -45.875 C 1.550781 -45.644531 1.703125 -44.820312 1.953125 -43.40625 C 2.203125 -41.988281 2.578125 -40.0625 3.078125 -37.625 C 3.585938 -35.195312 4.171875 -32.640625 4.828125 -29.953125 C 7.367188 -33.148438 9.9375 -36.96875 12.53125 -41.40625 C 15.125 -45.84375 16.757812 -49.523438 17.4375 -52.453125 C 18.84375 -52.359375 19.953125 -52.144531 20.765625 -51.8125 C 21.578125 -51.488281 22.101562 -50.847656 22.34375 -49.890625 C 22.507812 -49.222656 22.363281 -48.257812 21.90625 -47 C 21.457031 -45.75 20.570312 -44.046875 19.25 -41.890625 C 17.9375 -39.734375 16.789062 -37.914062 15.8125 -36.4375 C 14.84375 -34.96875 13.289062 -32.671875 11.15625 -29.546875 C 12.007812 -28.648438 13.21875 -27.367188 14.78125 -25.703125 C 16.34375 -24.035156 17.53125 -22.765625 18.34375 -21.890625 C 19.164062 -21.015625 20.226562 -19.9375 21.53125 -18.65625 C 22.832031 -17.382812 23.882812 -16.457031 24.6875 -15.875 C 25.5 -15.289062 26.390625 -14.664062 27.359375 -14 C 28.335938 -13.332031 29.222656 -12.910156 30.015625 -12.734375 C 30.816406 -12.566406 31.570312 -12.570312 32.28125 -12.75 C 32.976562 -12.914062 33.585938 -13.140625 34.109375 -13.421875 C 34.710938 -12.691406 35.085938 -12.019531 35.234375 -11.40625 C 35.492188 -10.351562 35.222656 -9.425781 34.421875 -8.625 C 33.617188 -7.832031 32.429688 -7.242188 30.859375 -6.859375 C 28.703125 -6.328125 26.421875 -6.738281 24.015625 -8.09375 C 21.609375 -9.457031 19.476562 -11.046875 17.625 -12.859375 C 15.78125 -14.679688 12.597656 -18.109375 8.078125 -23.140625 C 7.960938 -23.304688 7.859375 -23.421875 7.765625 -23.484375 C 7.679688 -23.554688 7.582031 -23.664062 7.46875 -23.8125 C 7.351562 -23.957031 7.238281 -24.09375 7.125 -24.21875 L 6.4375 -23.375 L 8.078125 -16.703125 C 9.566406 -10.617188 11.097656 -6.25 12.671875 -3.59375 C 11.503906 -2.84375 10.144531 -2.273438 8.59375 -1.890625 C 6.90625 -1.472656 5.679688 -1.484375 4.921875 -1.921875 C 4.160156 -2.359375 3.609375 -3.289062 3.265625 -4.71875 C 3.085938 -5.425781 2.671875 -7.222656 2.015625 -10.109375 C 1.359375 -13.003906 0.832031 -15.25 0.4375 -16.84375 Z M 0.4375 -16.84375 "/></g></g></g><g fill="#545454" fill-opacity="0.3882"><g transform="translate(134.685287, 202.241138)"><g><path d="M 3.203125 -16.0625 L 2.09375 -30.59375 C 1.582031 -37.164062 1 -42.578125 0.34375 -46.828125 C 1.40625 -47.046875 2.679688 -47.210938 4.171875 -47.328125 C 7.210938 -47.566406 8.800781 -46.796875 8.9375 -45.015625 C 8.957031 -44.742188 8.984375 -43.800781 9.015625 -42.1875 C 9.046875 -40.570312 9.109375 -38.550781 9.203125 -36.125 C 9.304688 -33.707031 9.441406 -31.414062 9.609375 -29.25 L 10.078125 -23.21875 C 10.785156 -13.957031 11.375 -8.363281 11.84375 -6.4375 C 13.726562 -6.488281 15.226562 -6.554688 16.34375 -6.640625 C 23.25 -7.171875 27.660156 -8.050781 29.578125 -9.28125 C 30.148438 -8.28125 30.488281 -7.140625 30.59375 -5.859375 C 30.707031 -4.335938 30.191406 -3.304688 29.046875 -2.765625 C 27.898438 -2.234375 25.945312 -1.859375 23.1875 -1.640625 L 17.078125 -1.171875 C 12.898438 -0.847656 9.78125 -0.65625 7.71875 -0.59375 C 6.40625 -0.53125 5.476562 -0.785156 4.9375 -1.359375 C 4.40625 -1.929688 4.082031 -2.921875 3.96875 -4.328125 C 3.914062 -5.085938 3.804688 -6.820312 3.640625 -9.53125 C 3.472656 -12.238281 3.328125 -14.414062 3.203125 -16.0625 Z M 3.203125 -16.0625 "/></g></g></g><g fill="#545454" fill-opacity="0.3882"><g transform="translate(204.989133, 199.818576)"><g><path d="M 38.9375 -40.203125 C 38.800781 -38.566406 37.03125 -35.582031 33.625 -31.25 C 30.226562 -26.914062 26.878906 -23.0625 23.578125 -19.6875 L 22.96875 -12.40625 C 22.4375 -6.164062 22.488281 -1.535156 23.125 1.484375 C 21.757812 1.828125 20.289062 1.929688 18.71875 1.796875 C 16.976562 1.648438 15.820312 1.25 15.25 0.59375 C 14.675781 -0.0625 14.453125 -1.117188 14.578125 -2.578125 C 14.640625 -3.304688 14.816406 -5.144531 15.109375 -8.09375 C 15.410156 -11.039062 15.628906 -13.332031 15.765625 -14.96875 L 16.203125 -20.046875 C 10.640625 -32.835938 6.25 -40.515625 3.03125 -43.078125 C 3.851562 -44.003906 4.882812 -44.789062 6.125 -45.4375 C 7.363281 -46.09375 8.523438 -46.375 9.609375 -46.28125 C 11.242188 -46.144531 12.554688 -45.234375 13.546875 -43.546875 C 16.554688 -38.171875 19.28125 -32.132812 21.71875 -25.4375 C 24.164062 -28.5625 26.492188 -32.148438 28.703125 -36.203125 C 30.921875 -40.253906 32.226562 -43.078125 32.625 -44.671875 C 37.039062 -44.117188 39.144531 -42.628906 38.9375 -40.203125 Z M 38.9375 -40.203125 "/></g></g></g><g fill="#545454" fill-opacity="0.3882"><g transform="translate(279.389631, 209.537001)"><g><path d="M 8.15625 -14.203125 L 11.703125 -28.34375 C 13.316406 -34.738281 14.492188 -40.050781 15.234375 -44.28125 C 16.304688 -44.15625 17.566406 -43.910156 19.015625 -43.546875 C 21.972656 -42.796875 23.234375 -41.550781 22.796875 -39.8125 C 22.734375 -39.550781 22.457031 -38.648438 21.96875 -37.109375 C 21.488281 -35.566406 20.90625 -33.632812 20.21875 -31.3125 C 19.539062 -29 18.9375 -26.785156 18.40625 -24.671875 L 16.9375 -18.8125 C 14.664062 -9.8125 13.441406 -4.316406 13.265625 -2.328125 C 15.078125 -1.773438 16.519531 -1.363281 17.59375 -1.09375 C 24.3125 0.59375 28.773438 1.164062 30.984375 0.625 C 31.222656 1.75 31.1875 2.929688 30.875 4.171875 C 30.5 5.648438 29.679688 6.460938 28.421875 6.609375 C 27.160156 6.753906 25.1875 6.488281 22.5 5.8125 L 16.5625 4.328125 C 12.5 3.296875 9.476562 2.484375 7.5 1.890625 C 6.238281 1.523438 5.445312 0.988281 5.125 0.28125 C 4.800781 -0.425781 4.8125 -1.46875 5.15625 -2.84375 C 5.34375 -3.582031 5.785156 -5.257812 6.484375 -7.875 C 7.191406 -10.5 7.75 -12.609375 8.15625 -14.203125 Z M 8.15625 -14.203125 "/></g></g></g><g fill="#545454" fill-opacity="1"><g transform="translate(60.948777, 211.859302)"><g><path d="M 0.4375 -16.84375 L -2.90625 -30.53125 C -4.457031 -36.84375 -5.898438 -42.039062 -7.234375 -46.125 C -5.929688 -46.6875 -4.757812 -47.097656 -3.71875 -47.359375 C -0.664062 -48.109375 1.070312 -47.613281 1.5 -45.875 C 1.550781 -45.644531 1.703125 -44.820312 1.953125 -43.40625 C 2.203125 -41.988281 2.578125 -40.0625 3.078125 -37.625 C 3.585938 -35.195312 4.171875 -32.640625 4.828125 -29.953125 C 7.367188 -33.148438 9.9375 -36.96875 12.53125 -41.40625 C 15.125 -45.84375 16.757812 -49.523438 17.4375 -52.453125 C 18.84375 -52.359375 19.953125 -52.144531 20.765625 -51.8125 C 21.578125 -51.488281 22.101562 -50.847656 22.34375 -49.890625 C 22.507812 -49.222656 22.363281 -48.257812 21.90625 -47 C 21.457031 -45.75 20.570312 -44.046875 19.25 -41.890625 C 17.9375 -39.734375 16.789062 -37.914062 15.8125 -36.4375 C 14.84375 -34.96875 13.289062 -32.671875 11.15625 -29.546875 C 12.007812 -28.648438 13.21875 -27.367188 14.78125 -25.703125 C 16.34375 -24.035156 17.53125 -22.765625 18.34375 -21.890625 C 19.164062 -21.015625 20.226562 -19.9375 21.53125 -18.65625 C 22.832031 -17.382812 23.882812 -16.457031 24.6875 -15.875 C 25.5 -15.289062 26.390625 -14.664062 27.359375 -14 C 28.335938 -13.332031 29.222656 -12.910156 30.015625 -12.734375 C 30.816406 -12.566406 31.570312 -12.570312 32.28125 -12.75 C 32.976562 -12.914062 33.585938 -13.140625 34.109375 -13.421875 C 34.710938 -12.691406 35.085938 -12.019531 35.234375 -11.40625 C 35.492188 -10.351562 35.222656 -9.425781 34.421875 -8.625 C 33.617188 -7.832031 32.429688 -7.242188 30.859375 -6.859375 C 28.703125 -6.328125 26.421875 -6.738281 24.015625 -8.09375 C 21.609375 -9.457031 19.476562 -11.046875 17.625 -12.859375 C 15.78125 -14.679688 12.597656 -18.109375 8.078125 -23.140625 C 7.960938 -23.304688 7.859375 -23.421875 7.765625 -23.484375 C 7.679688 -23.554688 7.582031 -23.664062 7.46875 -23.8125 C 7.351562 -23.957031 7.238281 -24.09375 7.125 -24.21875 L 6.4375 -23.375 L 8.078125 -16.703125 C 9.566406 -10.617188 11.097656 -6.25 12.671875 -3.59375 C 11.503906 -2.84375 10.144531 -2.273438 8.59375 -1.890625 C 6.90625 -1.472656 5.679688 -1.484375 4.921875 -1.921875 C 4.160156 -2.359375 3.609375 -3.289062 3.265625 -4.71875 C 3.085938 -5.425781 2.671875 -7.222656 2.015625 -10.109375 C 1.359375 -13.003906 0.832031 -15.25 0.4375 -16.84375 Z M 0.4375 -16.84375 "/></g></g></g><g fill="#545454" fill-opacity="1"><g transform="translate(135.782807, 197.077797)"><g><path d="M 3.203125 -16.0625 L 2.09375 -30.59375 C 1.582031 -37.164062 1 -42.578125 0.34375 -46.828125 C 1.40625 -47.046875 2.679688 -47.210938 4.171875 -47.328125 C 7.210938 -47.566406 8.800781 -46.796875 8.9375 -45.015625 C 8.957031 -44.742188 8.984375 -43.800781 9.015625 -42.1875 C 9.046875 -40.570312 9.109375 -38.550781 9.203125 -36.125 C 9.304688 -33.707031 9.441406 -31.414062 9.609375 -29.25 L 10.078125 -23.21875 C 10.785156 -13.957031 11.375 -8.363281 11.84375 -6.4375 C 13.726562 -6.488281 15.226562 -6.554688 16.34375 -6.640625 C 23.25 -7.171875 27.660156 -8.050781 29.578125 -9.28125 C 30.148438 -8.28125 30.488281 -7.140625 30.59375 -5.859375 C 30.707031 -4.335938 30.191406 -3.304688 29.046875 -2.765625 C 27.898438 -2.234375 25.945312 -1.859375 23.1875 -1.640625 L 17.078125 -1.171875 C 12.898438 -0.847656 9.78125 -0.65625 7.71875 -0.59375 C 6.40625 -0.53125 5.476562 -0.785156 4.9375 -1.359375 C 4.40625 -1.929688 4.082031 -2.921875 3.96875 -4.328125 C 3.914062 -5.085938 3.804688 -6.820312 3.640625 -9.53125 C 3.472656 -12.238281 3.328125 -14.414062 3.203125 -16.0625 Z M 3.203125 -16.0625 "/></g></g></g><g fill="#545454" fill-opacity="1"><g transform="translate(206.086653, 194.655236)"><g><path d="M 38.9375 -40.203125 C 38.800781 -38.566406 37.03125 -35.582031 33.625 -31.25 C 30.226562 -26.914062 26.878906 -23.0625 23.578125 -19.6875 L 22.96875 -12.40625 C 22.4375 -6.164062 22.488281 -1.535156 23.125 1.484375 C 21.757812 1.828125 20.289062 1.929688 18.71875 1.796875 C 16.976562 1.648438 15.820312 1.25 15.25 0.59375 C 14.675781 -0.0625 14.453125 -1.117188 14.578125 -2.578125 C 14.640625 -3.304688 14.816406 -5.144531 15.109375 -8.09375 C 15.410156 -11.039062 15.628906 -13.332031 15.765625 -14.96875 L 16.203125 -20.046875 C 10.640625 -32.835938 6.25 -40.515625 3.03125 -43.078125 C 3.851562 -44.003906 4.882812 -44.789062 6.125 -45.4375 C 7.363281 -46.09375 8.523438 -46.375 9.609375 -46.28125 C 11.242188 -46.144531 12.554688 -45.234375 13.546875 -43.546875 C 16.554688 -38.171875 19.28125 -32.132812 21.71875 -25.4375 C 24.164062 -28.5625 26.492188 -32.148438 28.703125 -36.203125 C 30.921875 -40.253906 32.226562 -43.078125 32.625 -44.671875 C 37.039062 -44.117188 39.144531 -42.628906 38.9375 -40.203125 Z M 38.9375 -40.203125 "/></g></g></g><g fill="#545454" fill-opacity="1"><g transform="translate(280.487151, 204.373603)"><g><path d="M 8.15625 -14.203125 L 11.703125 -28.34375 C 13.316406 -34.738281 14.492188 -40.050781 15.234375 -44.28125 C 16.304688 -44.15625 17.566406 -43.910156 19.015625 -43.546875 C 21.972656 -42.796875 23.234375 -41.550781 22.796875 -39.8125 C 22.734375 -39.550781 22.457031 -38.648438 21.96875 -37.109375 C 21.488281 -35.566406 20.90625 -33.632812 20.21875 -31.3125 C 19.539062 -29 18.9375 -26.785156 18.40625 -24.671875 L 16.9375 -18.8125 C 14.664062 -9.8125 13.441406 -4.316406 13.265625 -2.328125 C 15.078125 -1.773438 16.519531 -1.363281 17.59375 -1.09375 C 24.3125 0.59375 28.773438 1.164062 30.984375 0.625 C 31.222656 1.75 31.1875 2.929688 30.875 4.171875 C 30.5 5.648438 29.679688 6.460938 28.421875 6.609375 C 27.160156 6.753906 25.1875 6.488281 22.5 5.8125 L 16.5625 4.328125 C 12.5 3.296875 9.476562 2.484375 7.5 1.890625 C 6.238281 1.523438 5.445312 0.988281 5.125 0.28125 C 4.800781 -0.425781 4.8125 -1.46875 5.15625 -2.84375 C 5.34375 -3.582031 5.785156 -5.257812 6.484375 -7.875 C 7.191406 -10.5 7.75 -12.609375 8.15625 -14.203125 Z M 8.15625 -14.203125 "/></g></g></g></svg>