<svg xmlns="http://www.w3.org/2000/svg" xmlns:xlink="http://www.w3.org/1999/xlink" width="500" zoomAndPan="magnify" viewBox="0 0 375 374.999991" height="500" preserveAspectRatio="xMidYMid meet" version="1.0"><defs><g/></defs><rect x="-37.5" width="450" fill="#ffffff" y="-37.499999" height="449.999989" fill-opacity="1"/><rect x="-37.5" width="450" fill="#ffefef" y="-37.499999" height="449.999989" fill-opacity="1"/><g fill="#545454" fill-opacity="0.3882"><g transform="translate(11.671914, 216.569604)"><g><path d="M 5.9375 -21.78125 L 5.9375 -40.671875 C 5.9375 -49.390625 5.722656 -56.617188 5.296875 -62.359375 C 7.171875 -62.671875 8.828125 -62.828125 10.265625 -62.828125 C 14.472656 -62.828125 16.578125 -61.628906 16.578125 -59.234375 C 16.578125 -58.921875 16.515625 -57.804688 16.390625 -55.890625 C 16.273438 -53.972656 16.15625 -51.347656 16.03125 -48.015625 C 15.90625 -44.679688 15.84375 -41.160156 15.84375 -37.453125 C 20.175781 -40.796875 24.734375 -44.945312 29.515625 -49.90625 C 34.304688 -54.863281 37.609375 -59.140625 39.421875 -62.734375 C 41.234375 -62.148438 42.613281 -61.507812 43.5625 -60.8125 C 44.519531 -60.125 45 -59.117188 45 -57.796875 C 45 -56.878906 44.503906 -55.675781 43.515625 -54.1875 C 42.535156 -52.695312 40.84375 -50.757812 38.4375 -48.375 C 36.03125 -46 33.957031 -44.003906 32.21875 -42.390625 C 30.476562 -40.785156 27.722656 -38.289062 23.953125 -34.90625 C 24.773438 -33.46875 25.9375 -31.410156 27.4375 -28.734375 C 28.945312 -26.066406 30.09375 -24.035156 30.875 -22.640625 C 31.664062 -21.242188 32.703125 -19.507812 33.984375 -17.4375 C 35.273438 -15.363281 36.347656 -13.8125 37.203125 -12.78125 C 38.066406 -11.75 39.03125 -10.648438 40.09375 -9.484375 C 41.15625 -8.316406 42.175781 -7.492188 43.15625 -7.015625 C 44.132812 -6.546875 45.117188 -6.3125 46.109375 -6.3125 C 47.054688 -6.3125 47.914062 -6.40625 48.6875 -6.59375 C 49.238281 -5.445312 49.515625 -4.445312 49.515625 -3.59375 C 49.515625 -2.144531 48.867188 -1.03125 47.578125 -0.25 C 46.285156 0.53125 44.550781 0.921875 42.375 0.921875 C 39.394531 0.921875 36.550781 -0.34375 33.84375 -2.875 C 31.144531 -5.40625 28.878906 -8.148438 27.046875 -11.109375 C 25.222656 -14.078125 22.179688 -19.554688 17.921875 -27.546875 C 17.796875 -27.785156 17.6875 -27.96875 17.59375 -28.09375 C 17.5 -28.21875 17.40625 -28.394531 17.3125 -28.625 C 17.226562 -28.851562 17.125 -29.0625 17 -29.25 L 15.84375 -28.375 L 15.84375 -19.15625 C 15.84375 -10.78125 16.441406 -4.609375 17.640625 -0.640625 C 15.890625 -0.0234375 13.941406 0.28125 11.796875 0.28125 C 9.460938 0.28125 7.867188 -0.125 7.015625 -0.9375 C 6.171875 -1.757812 5.75 -3.148438 5.75 -5.109375 C 5.75 -6.097656 5.78125 -8.570312 5.84375 -12.53125 C 5.90625 -16.488281 5.9375 -19.570312 5.9375 -21.78125 Z M 5.9375 -21.78125 "/></g></g></g><g fill="#545454" fill-opacity="0.3882"><g transform="translate(117.314916, 216.569604)"><g><path d="M 5.9375 -21.140625 L 5.9375 -40.671875 C 5.9375 -49.515625 5.722656 -56.804688 5.296875 -62.546875 C 6.742188 -62.734375 8.460938 -62.828125 10.453125 -62.828125 C 14.535156 -62.828125 16.578125 -61.628906 16.578125 -59.234375 C 16.578125 -58.859375 16.515625 -57.585938 16.390625 -55.421875 C 16.273438 -53.265625 16.15625 -50.566406 16.03125 -47.328125 C 15.90625 -44.085938 15.84375 -41.007812 15.84375 -38.09375 L 15.84375 -29.984375 C 15.84375 -17.546875 16.054688 -10.007812 16.484375 -7.375 C 19.003906 -7.25 21.015625 -7.1875 22.515625 -7.1875 C 31.796875 -7.1875 37.785156 -7.90625 40.484375 -9.34375 C 41.160156 -7.96875 41.5 -6.421875 41.5 -4.703125 C 41.5 -2.640625 40.695312 -1.304688 39.09375 -0.703125 C 37.5 -0.109375 34.847656 0.1875 31.140625 0.1875 L 22.9375 0.1875 C 17.320312 0.1875 13.128906 0.125 10.359375 0 C 8.609375 -0.0625 7.398438 -0.5 6.734375 -1.3125 C 6.078125 -2.125 5.75 -3.484375 5.75 -5.390625 C 5.75 -6.398438 5.78125 -8.722656 5.84375 -12.359375 C 5.90625 -16.003906 5.9375 -18.929688 5.9375 -21.140625 Z M 5.9375 -21.140625 "/></g></g></g><g fill="#545454" fill-opacity="0.3882"><g transform="translate(214.944044, 216.569604)"><g><path d="M 47.4375 -58.125 C 47.4375 -55.914062 45.410156 -51.722656 41.359375 -45.546875 C 37.304688 -39.378906 33.269531 -33.851562 29.25 -28.96875 L 29.25 -19.15625 C 29.25 -10.78125 29.847656 -4.609375 31.046875 -0.640625 C 29.265625 -0.0234375 27.3125 0.28125 25.1875 0.28125 C 22.851562 0.28125 21.265625 -0.125 20.421875 -0.9375 C 19.578125 -1.757812 19.15625 -3.148438 19.15625 -5.109375 C 19.15625 -6.097656 19.1875 -8.570312 19.25 -12.53125 C 19.3125 -16.488281 19.34375 -19.570312 19.34375 -21.78125 L 19.34375 -28.609375 C 10.46875 -45.066406 3.742188 -54.828125 -0.828125 -57.890625 C 0.148438 -59.210938 1.429688 -60.378906 3.015625 -61.390625 C 4.597656 -62.410156 6.109375 -62.921875 7.546875 -62.921875 C 9.765625 -62.921875 11.625 -61.84375 13.125 -59.6875 C 17.757812 -52.84375 22.085938 -45.09375 26.109375 -36.4375 C 29.023438 -40.882812 31.734375 -45.941406 34.234375 -51.609375 C 36.742188 -57.273438 38.164062 -61.195312 38.5 -63.375 C 44.457031 -63.132812 47.4375 -61.382812 47.4375 -58.125 Z M 47.4375 -58.125 "/></g></g></g><g fill="#545454" fill-opacity="0.3882"><g transform="translate(318.882932, 216.569604)"><g><path d="M 5.9375 -21.140625 L 5.9375 -40.671875 C 5.9375 -49.515625 5.722656 -56.804688 5.296875 -62.546875 C 6.742188 -62.734375 8.460938 -62.828125 10.453125 -62.828125 C 14.535156 -62.828125 16.578125 -61.628906 16.578125 -59.234375 C 16.578125 -58.859375 16.515625 -57.585938 16.390625 -55.421875 C 16.273438 -53.265625 16.15625 -50.566406 16.03125 -47.328125 C 15.90625 -44.085938 15.84375 -41.007812 15.84375 -38.09375 L 15.84375 -29.984375 C 15.84375 -17.546875 16.054688 -10.007812 16.484375 -7.375 C 19.003906 -7.25 21.015625 -7.1875 22.515625 -7.1875 C 31.796875 -7.1875 37.785156 -7.90625 40.484375 -9.34375 C 41.160156 -7.96875 41.5 -6.421875 41.5 -4.703125 C 41.5 -2.640625 40.695312 -1.304688 39.09375 -0.703125 C 37.5 -0.109375 34.847656 0.1875 31.140625 0.1875 L 22.9375 0.1875 C 17.320312 0.1875 13.128906 0.125 10.359375 0 C 8.609375 -0.0625 7.398438 -0.5 6.734375 -1.3125 C 6.078125 -2.125 5.75 -3.484375 5.75 -5.390625 C 5.75 -6.398438 5.78125 -8.722656 5.84375 -12.359375 C 5.90625 -16.003906 5.9375 -18.929688 5.9375 -21.140625 Z M 5.9375 -21.140625 "/></g></g></g><g fill="#ff66c4" fill-opacity="1"><g transform="translate(13.142983, 209.648761)"><g><path d="M 5.9375 -21.78125 L 5.9375 -40.671875 C 5.9375 -49.390625 5.722656 -56.617188 5.296875 -62.359375 C 7.171875 -62.671875 8.828125 -62.828125 10.265625 -62.828125 C 14.472656 -62.828125 16.578125 -61.628906 16.578125 -59.234375 C 16.578125 -58.921875 16.515625 -57.804688 16.390625 -55.890625 C 16.273438 -53.972656 16.15625 -51.347656 16.03125 -48.015625 C 15.90625 -44.679688 15.84375 -41.160156 15.84375 -37.453125 C 20.175781 -40.796875 24.734375 -44.945312 29.515625 -49.90625 C 34.304688 -54.863281 37.609375 -59.140625 39.421875 -62.734375 C 41.234375 -62.148438 42.613281 -61.507812 43.5625 -60.8125 C 44.519531 -60.125 45 -59.117188 45 -57.796875 C 45 -56.878906 44.503906 -55.675781 43.515625 -54.1875 C 42.535156 -52.695312 40.84375 -50.757812 38.4375 -48.375 C 36.03125 -46 33.957031 -44.003906 32.21875 -42.390625 C 30.476562 -40.785156 27.722656 -38.289062 23.953125 -34.90625 C 24.773438 -33.46875 25.9375 -31.410156 27.4375 -28.734375 C 28.945312 -26.066406 30.09375 -24.035156 30.875 -22.640625 C 31.664062 -21.242188 32.703125 -19.507812 33.984375 -17.4375 C 35.273438 -15.363281 36.347656 -13.8125 37.203125 -12.78125 C 38.066406 -11.75 39.03125 -10.648438 40.09375 -9.484375 C 41.15625 -8.316406 42.175781 -7.492188 43.15625 -7.015625 C 44.132812 -6.546875 45.117188 -6.3125 46.109375 -6.3125 C 47.054688 -6.3125 47.914062 -6.40625 48.6875 -6.59375 C 49.238281 -5.445312 49.515625 -4.445312 49.515625 -3.59375 C 49.515625 -2.144531 48.867188 -1.03125 47.578125 -0.25 C 46.285156 0.53125 44.550781 0.921875 42.375 0.921875 C 39.394531 0.921875 36.550781 -0.34375 33.84375 -2.875 C 31.144531 -5.40625 28.878906 -8.148438 27.046875 -11.109375 C 25.222656 -14.078125 22.179688 -19.554688 17.921875 -27.546875 C 17.796875 -27.785156 17.6875 -27.96875 17.59375 -28.09375 C 17.5 -28.21875 17.40625 -28.394531 17.3125 -28.625 C 17.226562 -28.851562 17.125 -29.0625 17 -29.25 L 15.84375 -28.375 L 15.84375 -19.15625 C 15.84375 -10.78125 16.441406 -4.609375 17.640625 -0.640625 C 15.890625 -0.0234375 13.941406 0.28125 11.796875 0.28125 C 9.460938 0.28125 7.867188 -0.125 7.015625 -0.9375 C 6.171875 -1.757812 5.75 -3.148438 5.75 -5.109375 C 5.75 -6.097656 5.78125 -8.570312 5.84375 -12.53125 C 5.90625 -16.488281 5.9375 -19.570312 5.9375 -21.78125 Z M 5.9375 -21.78125 "/></g></g></g><g fill="#ff66c4" fill-opacity="1"><g transform="translate(118.785986, 209.648761)"><g><path d="M 5.9375 -21.140625 L 5.9375 -40.671875 C 5.9375 -49.515625 5.722656 -56.804688 5.296875 -62.546875 C 6.742188 -62.734375 8.460938 -62.828125 10.453125 -62.828125 C 14.535156 -62.828125 16.578125 -61.628906 16.578125 -59.234375 C 16.578125 -58.859375 16.515625 -57.585938 16.390625 -55.421875 C 16.273438 -53.265625 16.15625 -50.566406 16.03125 -47.328125 C 15.90625 -44.085938 15.84375 -41.007812 15.84375 -38.09375 L 15.84375 -29.984375 C 15.84375 -17.546875 16.054688 -10.007812 16.484375 -7.375 C 19.003906 -7.25 21.015625 -7.1875 22.515625 -7.1875 C 31.796875 -7.1875 37.785156 -7.90625 40.484375 -9.34375 C 41.160156 -7.96875 41.5 -6.421875 41.5 -4.703125 C 41.5 -2.640625 40.695312 -1.304688 39.09375 -0.703125 C 37.5 -0.109375 34.847656 0.1875 31.140625 0.1875 L 22.9375 0.1875 C 17.320312 0.1875 13.128906 0.125 10.359375 0 C 8.609375 -0.0625 7.398438 -0.5 6.734375 -1.3125 C 6.078125 -2.125 5.75 -3.484375 5.75 -5.390625 C 5.75 -6.398438 5.78125 -8.722656 5.84375 -12.359375 C 5.90625 -16.003906 5.9375 -18.929688 5.9375 -21.140625 Z M 5.9375 -21.140625 "/></g></g></g><g fill="#ff66c4" fill-opacity="1"><g transform="translate(216.415112, 209.648761)"><g><path d="M 47.4375 -58.125 C 47.4375 -55.914062 45.410156 -51.722656 41.359375 -45.546875 C 37.304688 -39.378906 33.269531 -33.851562 29.25 -28.96875 L 29.25 -19.15625 C 29.25 -10.78125 29.847656 -4.609375 31.046875 -0.640625 C 29.265625 -0.0234375 27.3125 0.28125 25.1875 0.28125 C 22.851562 0.28125 21.265625 -0.125 20.421875 -0.9375 C 19.578125 -1.757812 19.15625 -3.148438 19.15625 -5.109375 C 19.15625 -6.097656 19.1875 -8.570312 19.25 -12.53125 C 19.3125 -16.488281 19.34375 -19.570312 19.34375 -21.78125 L 19.34375 -28.609375 C 10.46875 -45.066406 3.742188 -54.828125 -0.828125 -57.890625 C 0.148438 -59.210938 1.429688 -60.378906 3.015625 -61.390625 C 4.597656 -62.410156 6.109375 -62.921875 7.546875 -62.921875 C 9.765625 -62.921875 11.625 -61.84375 13.125 -59.6875 C 17.757812 -52.84375 22.085938 -45.09375 26.109375 -36.4375 C 29.023438 -40.882812 31.734375 -45.941406 34.234375 -51.609375 C 36.742188 -57.273438 38.164062 -61.195312 38.5 -63.375 C 44.457031 -63.132812 47.4375 -61.382812 47.4375 -58.125 Z M 47.4375 -58.125 "/></g></g></g><g fill="#ff66c4" fill-opacity="1"><g transform="translate(320.354017, 209.648761)"><g><path d="M 5.9375 -21.140625 L 5.9375 -40.671875 C 5.9375 -49.515625 5.722656 -56.804688 5.296875 -62.546875 C 6.742188 -62.734375 8.460938 -62.828125 10.453125 -62.828125 C 14.535156 -62.828125 16.578125 -61.628906 16.578125 -59.234375 C 16.578125 -58.859375 16.515625 -57.585938 16.390625 -55.421875 C 16.273438 -53.265625 16.15625 -50.566406 16.03125 -47.328125 C 15.90625 -44.085938 15.84375 -41.007812 15.84375 -38.09375 L 15.84375 -29.984375 C 15.84375 -17.546875 16.054688 -10.007812 16.484375 -7.375 C 19.003906 -7.25 21.015625 -7.1875 22.515625 -7.1875 C 31.796875 -7.1875 37.785156 -7.90625 40.484375 -9.34375 C 41.160156 -7.96875 41.5 -6.421875 41.5 -4.703125 C 41.5 -2.640625 40.695312 -1.304688 39.09375 -0.703125 C 37.5 -0.109375 34.847656 0.1875 31.140625 0.1875 L 22.9375 0.1875 C 17.320312 0.1875 13.128906 0.125 10.359375 0 C 8.609375 -0.0625 7.398438 -0.5 6.734375 -1.3125 C 6.078125 -2.125 5.75 -3.484375 5.75 -5.390625 C 5.75 -6.398438 5.78125 -8.722656 5.84375 -12.359375 C 5.90625 -16.003906 5.9375 -18.929688 5.9375 -21.140625 Z M 5.9375 -21.140625 "/></g></g></g></svg>